<svg version="1" xmlns="http://www.w3.org/2000/svg" width="333.333" height="333.333" viewBox="0 0 250.000000 250.000000"><path d="M105.5 8.6C88.2 11.7 75 17 60.6 26.4 24.3 50 3.5 93 7.9 135.3 10.8 164 22.1 188 42 208c20.5 20.6 45.7 31.9 77 34.5 16.1 1.4 39.2-3.1 55.6-10.9 33.4-15.8 55.3-42.5 65.2-79.5 2.2-8.5 2.5-11.6 2.5-26.6.1-18.1-.9-24.4-5.9-39.3-9-27-30.4-51.9-56.3-65.5-22.4-11.9-50.6-16.4-74.6-12.1zm39 24c27.1 5.2 52 24.4 64.8 49.9 6.7 13.4 8.9 22.4 9.5 38.1.3 10.9.1 16-1.3 22.5-7.1 35.1-31.7 61.8-67 72.5-8.2 2.5-10.5 2.7-25 2.8-18.5 0-26.1-1.6-40.4-8.4-25.6-12.3-43.2-33.3-51.1-61.1-3.2-11.2-3.8-30.6-1.2-42.9 6.1-29.4 24.5-52.9 51.7-66 19.9-9.5 37.3-11.7 60-7.4z"/><path d="M91 65.5V76H111.7l3.1 8.7 3 8.7-26.6 43c-14.7 23.6-26.9 43.4-27 43.8-.2.5 5.2.7 11.9.6l12.4-.3 18.8-29.7c10.4-16.4 19.2-29.6 19.6-29.4.4.3 6.5 15.1 13.6 33.1 10.2 25.9 13.1 32.5 14.4 32 .8-.3 9.5-2.9 19.3-5.7 13.2-3.8 17.8-5.5 17.8-6.6 0-1.4-4.8-18.3-5.4-18.9-.1-.2-4.2 1-9.2 2.6-4.9 1.5-9 2.8-9 2.7-.1-.1-9.3-23.3-20.4-51.6-11.1-28.3-20.7-52.1-21.2-52.8-.8-.9-5.7-1.2-18.4-1.2H91v10.5z"/></svg>